<?xml version="1.0" encoding="utf-8"?>
<!-- Generator: Adobe Illustrator 26.5.0, SVG Export Plug-In . SVG Version: 6.00 Build 0)  -->
<svg version="1.1" id="Layer_1" xmlns="http://www.w3.org/2000/svg" xmlns:xlink="http://www.w3.org/1999/xlink" x="0px" y="0px"
	 viewBox="0 0 635.3 597.47" style="enable-background:new 0 0 635.3 597.47;" xml:space="preserve">
<style type="text/css">
	.st0{fill:#4745B7;}
</style>
<g>
	<path class="st0" d="M605.79,323.41c-27.97-41.97-73.44-71.28-125.99-77.49c9.15-21.33,14.23-44.83,14.23-69.51
		c0-10.17-0.87-20.14-2.53-29.85C477.33,63.35,404.89,0,317.64,0c-97.42,0-176.38,78.97-176.38,176.39
		c0,24.69,5.08,48.19,14.24,69.52C67.93,256.24,0,330.71,0,421.07c0,40.39,13.59,77.61,36.43,107.35
		c32.25,41.98,82.94,69.05,139.96,69.06c52.96,0,100.47-23.34,132.8-60.3c2.95-3.37,5.78-6.86,8.47-10.45
		c5.91,7.88,12.48,15.23,19.6,22.02c5.6,5.34,11.54,10.34,17.81,14.91c10.12,7.38,21.05,13.71,32.63,18.84
		c21.78,9.63,45.88,14.99,71.22,14.99c2.51,0,5-0.07,7.48-0.17c93.95-3.92,168.9-81.31,168.9-176.22
		C635.3,384.95,624.43,351.37,605.79,323.41z M225.74,123.33c29.31-50.76,94.21-68.16,144.97-38.85
		c43.58,25.16,62.56,76.57,48.51,122.73c-2.31,7.61-5.52,15.07-9.67,22.25c-9.27,16.06-22.11,28.78-36.94,37.74
		c-1.22,0.74-2.46,1.46-3.71,2.15c-11.94,6.57-25.04,10.77-38.53,12.41c-21.84,2.66-44.68-1.42-65.25-13.14
		c-0.47-0.27-0.93-0.54-1.4-0.81C213.64,238.27,196.6,173.81,225.74,123.33z M552.49,471.15c-12.23,22.81-31.47,39.26-53.55,48.23
		c-30.17,12.26-64.41,9.23-92.62-7.04l-15.21-8.78l-47.17-27.22l-60.22-34.76l-2.87-1.66l-82.32-47.51l-57.12,47.93l104.95,60.58
		c-33.24,29.15-82.62,35.42-123.04,12.09c-13.42-7.75-24.5-17.98-33.01-29.79c-23.68-32.85-27.39-77.85-5.83-115.2
		c29.2-50.58,93.74-68.03,144.42-39.16c0.47,0.27,0.93,0.54,1.4,0.81c1.23,0.7,2.47,1.39,3.72,2.07l21.81,12.59l35.8,20.67
		l59.82,34.53l3.16,1.83l93.79,54.13l57.04-47.86l0.05-0.09l-115.86-66.87c4.5-3.88,9.29-7.35,14.31-10.38
		c1.23-0.74,2.46-1.46,3.72-2.15c31.56-17.37,71.18-18.24,104.61,1.21c16.89,9.82,30.09,23.73,39.06,39.78
		C568.45,399.76,570.12,438.26,552.49,471.15z"/>
</g>
</svg>
